<svg width="331" height="290" viewBox="0 0 331 290" fill="none" xmlns="http://www.w3.org/2000/svg">
<path d="M307.89 83.7196C306.851 81.9523 305.761 80.2185 304.619 78.5184C289.414 55.9174 263.249 40.4577 237.512 33.469C226.22 30.4555 214.619 28.7566 202.939 28.406C126.45 25.8154 95.9851 86.2871 70.7041 101.896C45.423 117.506 6.53178 144.168 9.12529 200.098C11.7188 256.027 44.2705 277.122 91.983 290H210.347C239.088 281.394 305.253 229.4 315.252 202.533C328.879 165.917 328.236 118.355 307.89 83.7196Z" fill="#F4F5F1"/>
<path d="M85.0613 278.862C85.2108 276.154 85.2805 273.417 84.7325 270.77C84.1147 267.753 82.5901 264.806 80.0293 263.108C84.0848 263.818 87.9709 265.426 91.3389 267.793C92.4948 268.602 93.6506 269.581 94.0891 270.93C94.6969 266.475 92.3453 261.76 88.4193 259.582C90.7012 259.472 92.8933 260.471 94.8563 261.65C98.4834 263.818 101.722 266.645 104.342 269.971C104.871 266.655 103.745 263.118 101.403 260.721C104.791 263.268 107.8 266.385 109.952 270.041C111.547 272.748 112.653 275.755 113.091 278.862H85.0613Z" fill="#88B962"/>
<path d="M222.699 242.726C222.819 240.554 222.874 238.357 222.435 236.233C221.939 233.812 220.715 231.447 218.66 230.084C221.915 230.653 225.034 231.944 227.737 233.844C228.664 234.493 229.592 235.279 229.944 236.361C230.432 232.785 228.544 229.001 225.394 227.254C227.225 227.166 228.984 227.967 230.559 228.913C233.47 230.653 236.069 232.922 238.172 235.591C238.596 232.93 237.693 230.092 235.813 228.168C238.532 230.212 240.947 232.713 242.675 235.647C243.954 237.82 244.842 240.233 245.194 242.726H222.699Z" fill="#88B962"/>
<path fill-rule="evenodd" clip-rule="evenodd" d="M224.856 60.87C227.603 60.8621 230.306 61.5568 232.71 62.8884C234.27 57.0556 237.723 51.9095 242.523 48.2612C247.324 44.613 253.199 42.6702 259.222 42.7391C265.246 42.808 271.075 44.8847 275.791 48.6418C280.507 52.3989 283.842 57.6227 285.269 63.4896C288.308 61.0297 291.978 59.4815 295.857 59.0238C299.736 58.5662 303.665 59.2176 307.19 60.9031C310.715 62.5885 313.693 65.2391 315.779 68.5489C317.866 71.8586 318.976 75.6925 318.981 79.6078C318.982 80.7877 318.884 81.9656 318.689 83.1292H209.742C208.774 80.6594 208.422 77.99 208.716 75.3527C209.011 72.7155 209.944 70.1903 211.433 67.9966C212.923 65.8029 214.924 64.007 217.263 62.765C219.603 61.5231 222.209 60.8726 224.856 60.87" fill="#C8EBF5"/>
<path fill-rule="evenodd" clip-rule="evenodd" d="M25.4772 53.4633C27.069 53.4587 28.6356 53.8613 30.0288 54.6331C30.9333 51.2526 32.9344 48.27 35.7166 46.1556C38.4987 44.0412 41.9037 42.9152 45.3947 42.9551C48.8857 42.9951 52.2642 44.1987 54.9975 46.3762C57.7308 48.5537 59.6635 51.5812 60.4909 54.9815C62.2519 53.5558 64.3792 52.6585 66.6272 52.3933C68.8752 52.128 71.1522 52.5056 73.1953 53.4824C75.2383 54.4592 76.9641 55.9955 78.1734 57.9137C79.3827 59.8319 80.0261 62.0539 80.0293 64.3231C80.0295 65.0069 79.9728 65.6896 79.8597 66.364H16.7175C16.1563 64.9326 15.9522 63.3855 16.123 61.857C16.2938 60.3286 16.8343 58.865 17.6976 57.5936C18.5609 56.3222 19.7208 55.2814 21.0766 54.5616C22.4324 53.8417 23.9431 53.4647 25.4772 53.4633" fill="#C8EBF5"/>
<path fill-rule="evenodd" clip-rule="evenodd" d="M94.3902 7.37007C95.5065 7.36684 96.6051 7.6492 97.5822 8.19043C98.2166 5.81969 99.6199 3.72804 101.571 2.24521C103.522 0.762376 105.91 -0.0272845 108.358 0.000719976C110.807 0.0287244 113.176 0.872801 115.093 2.39988C117.01 3.92695 118.365 6.05017 118.945 8.4348C120.18 7.43497 121.672 6.8057 123.249 6.61968C124.825 6.43365 126.422 6.69845 127.855 7.38349C129.288 8.06853 130.498 9.14588 131.346 10.4911C132.194 11.8364 132.645 13.3947 132.647 14.986C132.648 15.4656 132.608 15.9444 132.529 16.4173H88.2471C87.8535 15.4135 87.7104 14.3285 87.8301 13.2566C87.9499 12.1847 88.329 11.1583 88.9344 10.2667C89.5398 9.37503 90.3533 8.64509 91.3041 8.14029C92.2549 7.63548 93.3143 7.37109 94.3902 7.37007" fill="#C8EBF5"/>
<path d="M13.8302 204.988C6.44253 208.636 1.12535 216.129 0.16922 225.017C0.0625687 225.969 0.00631714 226.925 0.000694275 227.883C0.000694275 228.59 0.0350876 229.279 0.0866776 229.969C1.09784 242.961 11.4262 253.173 24.0313 253.173C24.6263 253.173 25.2143 253.149 25.799 253.104C27.4646 252.963 30.6575 256.826 47.0855 250.555C65.2827 246.881 67.2283 227.59 68.7149 224.5C70.2109 221.381 70.9834 217.962 70.9745 214.501C70.9745 214.187 70.9298 213.884 70.9298 213.574C70.462 201.778 61.255 192.359 49.9328 192.359H49.8984C49.0358 192.375 48.1947 192.089 47.5198 191.55C46.8449 191.011 46.3786 190.253 46.2011 189.407C46.1702 189.255 46.1357 189.104 46.1014 188.955C44.6637 182.684 39.7627 177.725 33.4034 176.863C24.1585 175.605 16.248 183.163 16.248 192.662C16.2511 193.267 16.2855 193.871 16.3512 194.472C16.4608 195.485 16.6646 196.486 16.96 197.461C17.4146 198.884 17.3493 200.423 16.7759 201.802C16.2024 203.181 15.1583 204.31 13.8302 204.988Z" fill="#5C904B"/>
<path d="M21.0095 217.801C23.0972 216.17 27.1831 223.255 28.1082 224.445L34.1339 232.21V212.874C34.1339 209.519 34.0789 206.16 34.1339 202.809C34.1339 201.864 34.0342 200.768 35.1657 200.395C37.1571 199.727 37.1812 202.026 37.1812 203.264V214.873L43.3135 208.546C44.3453 207.512 45.3117 206.274 46.4295 205.326C47.9703 204.023 50.2713 205.088 48.9059 207.184C47.4304 209.453 44.7786 211.443 42.9042 213.391L37.1812 219.297V246.688L43.9223 240.854C45.047 239.878 46.1338 238.74 47.3616 237.885C48.9781 236.74 51.2445 237.961 49.69 239.93C48.0769 241.971 45.4046 243.64 43.4442 245.336L37.1915 250.753V272.992C37.1915 274.116 37.6421 276.616 36.5656 277.405C34.4676 278.947 34.1271 276.064 34.1271 274.771V237.216L26.8874 227.889L22.3406 222.028C21.5736 221.018 19.4274 219.042 21.0095 217.801Z" fill="#6D5A43"/>
<path d="M74.8345 243.268C74.2087 237.45 70.7285 232.546 65.893 230.159C65.0237 229.715 64.3403 228.976 63.965 228.073C63.5897 227.17 63.5469 226.163 63.8445 225.232C64.0378 224.594 64.1712 223.939 64.2429 223.275C64.2859 222.882 64.3085 222.487 64.3105 222.091C64.3105 215.873 59.1328 210.926 53.0817 211.75C48.9194 212.314 45.7115 215.56 44.7705 219.665C44.748 219.762 44.7255 219.861 44.7053 219.96C44.5891 220.514 44.2838 221.01 43.8421 221.363C43.4004 221.715 42.8498 221.903 42.2853 221.892H42.2627C34.852 221.892 28.8257 228.058 28.5196 235.778C28.5196 235.981 28.4903 236.18 28.4903 236.385C28.4844 238.651 28.9901 240.888 29.9693 242.93C30.9423 244.952 31.3016 247.216 31.0025 249.441C30.853 250.592 30.5352 251.715 30.0593 252.774C29.3538 254.327 28.9439 255.999 28.8505 257.703C28.8347 257.969 28.8099 258.235 28.8099 258.508C28.8099 265.866 34.4806 271.824 41.4726 271.824C46.3576 271.824 50.5852 268.91 52.6946 264.649C53.1895 263.671 53.9645 262.863 54.9202 262.329C55.8759 261.795 56.9689 261.56 58.059 261.652C58.4417 261.682 58.8267 261.697 59.2161 261.697C67.4665 261.697 74.2267 255.013 74.8886 246.509C74.9223 246.058 74.9449 245.606 74.9449 245.144C74.9412 244.517 74.9044 243.891 74.8345 243.268Z" fill="#88B962"/>
<path d="M46.3363 237.251C45.633 236.347 42.5269 230.96 40.9398 232.2C39.7371 233.144 41.3687 234.645 41.9517 235.413L45.4082 239.869L50.9118 246.959V275.509C50.9118 276.492 51.1706 278.683 52.7655 277.511C53.5839 276.911 53.2414 275.011 53.2414 274.156V257.25L57.9946 253.132C59.4849 251.843 61.5164 250.574 62.7426 249.022C63.9244 247.526 62.2015 246.598 60.9726 247.468C60.0392 248.118 59.213 248.983 58.3581 249.725L53.2335 254.16V233.377C53.2335 232.436 53.2152 230.687 51.7014 231.196C50.8412 231.479 50.917 232.312 50.917 233.031V243.154L46.3363 237.251Z" fill="#6D5A43"/>
<path d="M330.001 197.672C329.971 192.101 327.997 186.716 324.423 182.45C320.849 178.184 315.899 175.306 310.431 174.314C309.15 174.087 308.003 173.38 307.223 172.336C306.444 171.292 306.089 169.99 306.233 168.694C306.698 164.402 305.181 160.082 301.661 157.586C293.15 151.549 284.206 154.04 279.776 160.086C279.299 160.747 278.67 161.281 277.941 161.644C277.213 162.007 276.408 162.187 275.595 162.169H275.079C272.565 162.167 270.072 162.626 267.723 163.523C262.607 165.477 259.544 169.09 256.626 173.494C254.162 177.21 252.009 184.247 253.414 189.976C253.968 192.335 254.646 194.663 255.446 196.951C256.14 198.951 258.152 201.196 260.047 202.171C263.334 203.867 267.598 203.88 271.139 204.575C275.798 205.488 279.867 208.721 282.078 212.908C283.117 214.883 283.142 217.421 284.667 219.041C285.473 219.897 286.444 220.579 287.522 221.047C288.599 221.514 289.761 221.756 290.935 221.758H300.631C309.196 221.341 319.029 218.275 325.006 211.479C328.242 207.703 329.996 202.875 329.939 197.896V197.838C329.96 197.763 329.981 197.717 330.001 197.672ZM284.75 187.447L284.302 187.589L284.755 187.439L284.75 187.447Z" fill="#A3CF6A"/>
<path d="M280.34 223.995C280.668 223.854 281.001 223.716 281.325 223.579C281.296 220.028 279.916 216.623 277.467 214.058C275.018 211.493 271.685 209.962 268.148 209.778C264.611 209.594 261.138 210.771 258.437 213.068C255.736 215.365 254.012 218.609 253.617 222.137C253.557 222.654 253.526 223.175 253.525 223.695V224.499C253.525 227.983 254.905 231.324 257.362 233.787C259.818 236.251 263.151 237.635 266.625 237.636H276.309C277.641 237.636 278.919 237.106 279.862 236.161C280.804 235.216 281.333 233.935 281.333 232.599V223.683L281.221 223.616L280.34 223.995Z" fill="#477C56"/>
<path d="M304.861 227.891C302.099 227.903 299.454 229.008 297.501 230.966C295.548 232.924 294.446 235.576 294.434 238.345V245.011C294.434 246.013 294.831 246.975 295.538 247.683C296.245 248.392 297.203 248.79 298.203 248.79H306.59C308.894 248.79 311.104 247.873 312.733 246.24C314.363 244.607 315.279 242.392 315.28 240.082V238.332C315.277 235.563 314.178 232.909 312.225 230.951C310.271 228.994 307.623 227.893 304.861 227.891Z" fill="#5C904B"/>
<path d="M308.794 203.596C310.128 201.875 307.963 199.801 306.23 200.83C305.817 201.167 305.463 201.571 305.182 202.026C303.607 203.975 302.107 205.984 300.573 207.963C297.764 211.574 294.953 215.196 292.141 218.829V182.389C292.141 181.189 292.282 179.739 290.836 179.256C288.271 178.397 288.342 181.476 288.342 183.031V197.259L280.446 189.101C279.232 187.851 278.056 186.326 276.705 185.235C274.719 183.635 272.275 185.293 273.754 187.672C274.286 188.53 275.33 189.301 276.028 190.022L281.052 195.205L288.359 202.746V244.265C283.937 239.061 279.519 233.849 274.839 228.849C273.779 227.72 272.499 225.908 271.061 225.224C268.385 223.954 267.674 226.983 269.287 228.62C272.017 231.382 274.619 234.245 277.183 237.165C280.87 241.365 284.248 246.332 288.355 250.127V269.039C288.355 270.364 288.23 271.76 288.355 273.076C288.525 274.922 290.757 276.518 291.933 274.326C292.348 273.518 292.166 272.268 292.166 271.41V254.869L297.535 249.494C299.198 247.827 301.571 246.103 302.897 244.128C304.272 242.074 302.286 240.003 300.208 241.411C299.443 241.936 298.778 242.849 298.13 243.494L292.17 249.461V225.037L308.794 203.596Z" fill="#6D5A43"/>
</svg>
