<svg width="38" height="48" viewBox="0 0 38 48" fill="none" xmlns="http://www.w3.org/2000/svg">
<path d="M8 30.1455C6.34314 30.1455 5 28.8024 5 27.1455V14.5996C5 13.7453 5.36424 12.9315 6.00137 12.3623L17.1233 2.4268C18.2597 1.41161 19.9766 1.40963 21.1154 2.42219L32.2939 12.3619C32.9341 12.9312 33.3004 13.747 33.3004 14.6038V27.1455C33.3004 28.8024 31.9573 30.1455 30.3004 30.1455H8Z" fill="#3871E9"/>
<rect x="18.3307" y="11.3474" width="1.63889" height="12.4371" fill="white"/>
<rect x="25.3687" y="16.7463" width="1.63889" height="12.4371" transform="rotate(90 25.3687 16.7463)" fill="white"/>
<path d="M3.88398 37.1685V36.558H3.01381V37.1685H0.552486V37.8287H6.32044V37.1685H3.88398ZM3.88398 40.0414C5.11602 39.9807 5.79282 39.6464 5.79282 39.047C5.79282 38.384 4.9558 38.047 3.44751 38.0442C1.95028 38.047 1.09945 38.384 1.10221 39.047C1.09945 39.6464 1.78729 39.9807 3.01381 40.0414V40.4558H0.234807V41.1381H6.66851V40.4558H3.88398V40.0414ZM2.03315 39.047C2.03039 38.7597 2.51105 38.6381 3.44751 38.6326C4.39503 38.6381 4.86464 38.7597 4.86464 39.047C4.86464 39.3232 4.39503 39.4613 3.44751 39.4641C2.51105 39.4613 2.03039 39.3232 2.03315 39.047ZM5.8895 43.6077V41.558H0.994475V43.6077H5.8895ZM5.0442 42.2099V42.953H1.85083V42.2099H5.0442ZM14.3129 39.5497V36.6354H13.44V43.6906H14.3129V40.2707H15.3019V39.5497H14.3129ZM11.3212 37.4475V36.663H10.4483V37.4475H8.77427V38.1354H12.9842V37.4475H11.3212ZM11.3212 41.058C12.0892 40.9282 12.603 40.4448 12.6085 39.779C12.603 38.9862 11.8931 38.4558 10.8903 38.4558C9.87372 38.4558 9.17482 38.9862 9.17758 39.779C9.17482 40.4448 9.67758 40.9254 10.4483 41.0552V41.7182C9.79913 41.7348 9.17758 41.7376 8.64167 41.7376L8.76598 42.453C9.96764 42.453 11.603 42.4392 13.1196 42.1657L13.0616 41.5276C12.5063 41.605 11.9124 41.6547 11.3212 41.6851V41.058ZM10.0008 39.779C9.99803 39.3702 10.3544 39.1215 10.8903 39.1215C11.4179 39.1215 11.7743 39.3702 11.7743 39.779C11.7743 40.1878 11.4179 40.4282 10.8903 40.4254C10.3544 40.4282 9.99803 40.1878 10.0008 39.779ZM20.5283 40.0028V41.779H21.3957V36.6409H20.5283V37.7901H19.1029V37.2238H15.788V40.6105H19.1029V40.0028H20.5283ZM16.6499 39.9282V37.9171H18.2493V39.9282H16.6499ZM20.5283 39.3066H19.1029V38.4972H20.5283V39.3066ZM17.6195 41.3039H16.741V43.558H21.5504V42.8536H17.6195V41.3039ZM24.6396 40.442C25.8164 40.2956 26.7308 39.7901 27.1893 39.1022C27.6507 39.7818 28.5567 40.2956 29.7253 40.442L30.0402 39.7569C28.6341 39.5856 27.7142 38.8564 27.6286 38.1602H29.8081V37.4696H27.6148V36.6381H26.7529V37.4696H24.5706V38.1602H26.7474C26.659 38.8646 25.7335 39.5856 24.3247 39.7569L24.6396 40.442ZM23.9739 40.8729V41.5856H26.7529V43.7017H27.6148V41.5856H30.4076V40.8729H23.9739ZM36.2583 39.3923V36.6354H35.3882V43.6796H36.2583V40.1133H37.3053V39.3923H36.2583ZM31.0677 37.3674V38.0829H33.5097C33.3384 39.6906 32.4103 40.8895 30.692 41.7514L31.181 42.4199C33.529 41.2652 34.3882 39.442 34.3937 37.3674H31.0677Z" fill="#111111"/>
</svg>
