<svg width="24" height="24" viewBox="0 0 24 24" fill="none" xmlns="http://www.w3.org/2000/svg">
<path d="M4 17.9996H9.5V19.2496C9.5 19.9789 9.21027 20.6784 8.69454 21.1941C8.17882 21.7099 7.47935 21.9996 6.75 21.9996C6.02065 21.9996 5.32118 21.7099 4.80546 21.1941C4.28973 20.6784 4 19.9789 4 19.2496V17.9996ZM8.058 13.9996L8.103 13.8676C8.87 11.7616 9 11.3696 9 10.9996C9 10.2496 8.797 9.35659 8.472 8.72659C8.23 8.25659 8.06 8.11959 8 8.11959C6.72 8.11959 5.5 9.48359 5.5 10.9996C5.5 11.9586 5.575 12.7726 5.727 13.7576L5.765 13.9996H8.058ZM8 6.11959C10 6.11959 11 8.99959 11 10.9996C11 11.9996 10.5 12.9996 10 14.4996L9.5 15.9996H4C4 14.9996 3.5 13.4996 3.5 10.9996C3.5 8.49959 5.498 6.11959 8 6.11959ZM20.054 14.0976L19.837 15.3286C19.7104 16.0469 19.3035 16.6855 18.7061 17.1039C18.1086 17.5223 17.3693 17.6862 16.651 17.5596C15.9327 17.4329 15.2941 17.0261 14.8757 16.4286C14.4573 15.8312 14.2934 15.0919 14.42 14.3736L14.638 13.1436L20.054 14.0976ZM19.004 9.85159C19.169 9.35159 19.305 8.95659 19.307 8.95159C19.509 8.29359 19.668 7.64859 19.792 6.94359C20.055 5.45159 19.09 3.89659 17.83 3.67359C17.771 3.66359 17.58 3.76859 17.26 4.18859C16.83 4.75359 16.476 5.59859 16.345 6.33559C16.287 6.66559 16.296 6.74059 16.615 8.59859C16.66 8.85459 16.697 9.08459 16.731 9.31559L16.751 9.45359L19.005 9.85159H19.004ZM18.178 1.70459C20.642 2.13859 22.196 4.82859 21.762 7.29059C21.328 9.75359 20.575 11.1436 20.402 12.1286L14.985 11.1736L14.753 9.60959C14.521 8.04559 14.203 6.97359 14.376 5.98959C14.723 4.01959 16.208 1.35759 18.178 1.70459V1.70459Z" fill="#333333"/>
</svg>
