<svg width="28" height="46" viewBox="0 0 28 46" fill="none" xmlns="http://www.w3.org/2000/svg">
<path d="M15.3306 26.2612C13.2317 26.2626 11.1683 25.7321 9.34169 24.7215C7.51512 23.7109 5.98781 22.2546 4.90881 20.4949C3.8298 18.7352 3.23598 16.7321 3.18528 14.6812C3.13458 12.6302 3.62873 10.6014 4.61953 8.79282C5.61032 6.98422 7.0639 5.45758 8.8384 4.3619C10.6129 3.26623 12.6477 2.63895 14.7443 2.54127C16.8408 2.44359 18.9274 2.87886 20.8005 3.80459C22.6736 4.73032 24.2691 6.11489 25.4314 7.82317L27 6.28799C25.2408 3.86728 22.7397 2.05597 19.8582 1.11581C16.9767 0.175648 13.8639 0.155336 10.9698 1.0578C8.07572 1.96026 5.55013 3.73876 3.75799 6.1363C1.96585 8.53383 1 11.4262 1 14.3955C1 17.3648 1.96585 20.2572 3.75799 22.6547C5.55013 25.0523 8.07572 26.8308 10.9698 27.7332C13.8639 28.6357 16.9767 28.6154 19.8582 27.6752C22.7397 26.735 25.2408 24.9237 27 22.503L25.4314 20.9679C24.324 22.5951 22.8226 23.9297 21.0604 24.8531C19.2983 25.7766 17.33 26.2603 15.3306 26.2612Z" fill="#3871E9"/>
<path d="M19.5381 9.93778L22.8679 13.3055H10V15.4875H22.8679L19.5381 18.8532L21.0639 20.3955L27 14.3955L21.0639 8.39551L19.5381 9.93778Z" fill="#3871E9"/>
<path d="M3.87845 39.0055H6.0884V38.2956H1.8674V37.384H5.92541V35.116H0.98895V35.8177H5.0663V36.6961H1V39.0055H3.01657V40.1575H0.234807V40.8757H6.69061V40.1575H3.87845V39.0055ZM11.743 36.1188C11.7403 37.0331 11.7403 38.058 11.4668 39.4448L12.348 39.5193C12.6049 38.0359 12.6049 37.0608 12.6049 36.1188V35.3177H7.66843V36.0221H11.743V36.1188ZM6.98887 40.7293H13.4226V40.0138H6.98887V40.7293ZM19.2733 37.3481V34.6354H18.4032V41.6906H19.2733V38.0773H20.3617V37.3481H19.2733ZM15.638 35.1464C14.5689 35.1492 13.8009 36.116 13.8037 37.6409C13.8009 39.1768 14.5689 40.1436 15.638 40.1409C16.7043 40.1436 17.4695 39.1768 17.475 37.6409C17.4695 36.116 16.7043 35.1492 15.638 35.1464ZM15.638 39.3564C15.0468 39.3564 14.638 38.7265 14.6407 37.6409C14.638 36.5635 15.0468 35.9309 15.638 35.9309C16.2402 35.9309 16.638 36.5635 16.638 37.6409C16.638 38.7265 16.2402 39.3564 15.638 39.3564ZM23.7097 37.3619C25.2788 37.3646 26.2511 36.8785 26.2511 36.047C26.2511 35.2044 25.2788 34.7293 23.7097 34.7293C22.1489 34.7293 21.1627 35.2044 21.1655 36.047C21.1627 36.8785 22.1489 37.3646 23.7097 37.3619ZM23.7097 35.3785C24.7484 35.3729 25.3589 35.616 25.3589 36.047C25.3589 36.4613 24.7484 36.6989 23.7097 36.6989C22.6655 36.6989 22.0605 36.4613 22.0661 36.047C22.0605 35.616 22.6655 35.3729 23.7097 35.3785ZM20.497 38.4917H23.2677V39.1961H24.1296V38.4917H26.939V37.7735H20.497V38.4917ZM24.1406 39.4834H23.2456V39.6519C23.2456 40.2735 22.3699 40.8729 20.9279 41.0028L21.2152 41.6575C22.3837 41.547 23.2622 41.1271 23.6904 40.5359C24.1185 41.1381 25.008 41.547 26.1904 41.6575L26.4611 41.0028C24.9942 40.8729 24.1406 40.2956 24.1406 39.6519V39.4834Z" fill="#111111"/>
</svg>
