<svg width="20" height="21" viewBox="0 0 20 21" fill="none" xmlns="http://www.w3.org/2000/svg">
<path d="M10 19.4834C7.67936 19.4834 5.45376 18.5615 3.81282 16.9206C2.17187 15.2796 1.25 13.054 1.25 10.7334C1.25 8.41275 2.17187 6.18716 3.81282 4.54621C5.45376 2.90527 7.67936 1.9834 10 1.9834C12.3206 1.9834 14.5462 2.90527 16.1872 4.54621C17.8281 6.18716 18.75 8.41275 18.75 10.7334C18.75 13.054 17.8281 15.2796 16.1872 16.9206C14.5462 18.5615 12.3206 19.4834 10 19.4834ZM10 20.7334C12.6522 20.7334 15.1957 19.6798 17.0711 17.8045C18.9464 15.9291 20 13.3856 20 10.7334C20 8.08123 18.9464 5.53769 17.0711 3.66233C15.1957 1.78697 12.6522 0.733398 10 0.733398C7.34784 0.733398 4.8043 1.78697 2.92893 3.66233C1.05357 5.53769 0 8.08123 0 10.7334C0 13.3856 1.05357 15.9291 2.92893 17.8045C4.8043 19.6798 7.34784 20.7334 10 20.7334Z" fill="white"/>
<path d="M10 5.7334C10.1658 5.7334 10.3247 5.79925 10.4419 5.91646C10.5592 6.03367 10.625 6.19264 10.625 6.3584V10.1084H14.375C14.5408 10.1084 14.6997 10.1742 14.8169 10.2915C14.9342 10.4087 15 10.5676 15 10.7334C15 10.8992 14.9342 11.0581 14.8169 11.1753C14.6997 11.2926 14.5408 11.3584 14.375 11.3584H10.625V15.1084C10.625 15.2742 10.5592 15.4331 10.4419 15.5503C10.3247 15.6676 10.1658 15.7334 10 15.7334C9.83424 15.7334 9.67527 15.6676 9.55806 15.5503C9.44085 15.4331 9.375 15.2742 9.375 15.1084V11.3584H5.625C5.45924 11.3584 5.30027 11.2926 5.18306 11.1753C5.06585 11.0581 5 10.8992 5 10.7334C5 10.5676 5.06585 10.4087 5.18306 10.2915C5.30027 10.1742 5.45924 10.1084 5.625 10.1084H9.375V6.3584C9.375 6.19264 9.44085 6.03367 9.55806 5.91646C9.67527 5.79925 9.83424 5.7334 10 5.7334Z" fill="white"/>
</svg>
