<svg width="32" height="32" viewBox="0 0 32 32" fill="none" xmlns="http://www.w3.org/2000/svg">
<path d="M23.1877 3.73501C23.1878 3.26663 23.0019 2.81739 22.6708 2.48611C22.3397 2.15483 21.8905 1.96864 21.4222 1.96851C21.1902 1.96844 20.9606 2.01405 20.7463 2.10274C20.532 2.19143 20.3373 2.32146 20.1733 2.4854C19.842 2.8165 19.6558 3.26563 19.6557 3.73401C19.6557 4.70901 21.4217 8.00101 21.4217 8.00101C21.4217 8.00101 23.1877 4.70901 23.1877 3.73401V3.73501ZM20.5777 3.73501C20.5737 3.62179 20.5926 3.50894 20.6331 3.40318C20.6737 3.29741 20.7351 3.2009 20.8138 3.11938C20.8925 3.03787 20.9867 2.97302 21.091 2.92871C21.1953 2.8844 21.3074 2.86153 21.4206 2.86146C21.5339 2.8614 21.6461 2.88413 21.7504 2.92832C21.8547 2.97251 21.949 3.03724 22.0278 3.11866C22.1065 3.20008 22.1681 3.29653 22.2088 3.40224C22.2495 3.50796 22.2685 3.62079 22.2647 3.73401C22.2573 3.95269 22.1652 4.15996 22.0079 4.31209C21.8507 4.46423 21.6405 4.54933 21.4216 4.54946C21.2028 4.54959 20.9925 4.46474 20.8351 4.31279C20.6776 4.16084 20.5853 3.95369 20.5777 3.73501ZM25.2807 18.495C24.7207 18.495 24.1837 18.542 23.6907 18.618L11.0997 13.976C11.2997 13.796 11.4117 13.596 11.4117 13.386C11.4091 13.2753 11.3788 13.167 11.3237 13.071L19.7337 10.833C20.1937 10.97 20.7567 11.053 21.3797 11.053C22.8997 11.053 24.1297 10.569 24.1297 9.97101C24.1297 9.37101 22.8997 8.88801 21.3797 8.88801C19.8597 8.88801 18.6297 9.37301 18.6297 9.97101C18.6297 10.041 18.6497 10.108 18.6837 10.173L9.89566 12.2C9.15884 11.9921 8.3962 11.8901 7.63066 11.897C5.54366 11.897 3.85066 12.564 3.85066 13.387C3.85066 14.21 5.54366 14.877 7.63066 14.877C8.20466 14.877 8.74066 14.822 9.22866 14.732L21.2187 19.598C21.0287 19.79 20.9127 19.998 20.9127 20.221C20.9127 20.411 21.0087 20.585 21.1487 20.754L8.69466 25.415C8.53666 25.41 8.37866 25.405 8.21766 25.405C4.97766 25.405 2.34766 26.441 2.34766 27.715C2.34766 28.992 4.97766 30.028 8.21766 30.028C11.4577 30.028 14.0877 28.994 14.0877 27.716C14.0877 27.496 14.0047 27.284 13.8577 27.083L24.1237 21.869C24.4937 21.909 24.8767 21.934 25.2787 21.934C27.6917 21.934 29.6487 21.164 29.6487 20.211C29.6487 19.267 27.6917 18.495 25.2787 18.495H25.2807Z" fill="#333333"/>
</svg>
