<svg width="24" height="24" viewBox="0 0 24 24" fill="none" xmlns="http://www.w3.org/2000/svg">
<g clip-path="url(#clip0_8138_4117)">
<path d="M5.50002 20C4.04133 20.0003 2.64228 19.421 1.61064 18.3898C0.579006 17.3585 -0.000711255 15.9597 -0.000976471 14.501C-0.00124169 13.0423 0.577967 11.6432 1.60923 10.6116C2.64049 9.57997 4.03933 9.00025 5.49802 8.99999C6.06116 7.65075 7.06261 6.53069 8.34065 5.82065C9.6187 5.11061 11.0988 4.85203 12.5418 5.08667C13.9849 5.32131 15.3068 6.03547 16.2941 7.11384C17.2813 8.19221 17.8763 9.57184 17.983 11.03L18.5 11C19.6935 11 20.8381 11.4741 21.682 12.318C22.5259 13.1619 23 14.3065 23 15.5C23 16.6935 22.5259 17.8381 21.682 18.682C20.8381 19.5259 19.6935 20 18.5 20H5.50002ZM5.50002 9.99999C4.30655 9.99999 3.16196 10.4741 2.31804 11.318C1.47413 12.1619 1.00002 13.3065 1.00002 14.5C1.00002 15.6935 1.47413 16.8381 2.31804 17.682C3.16196 18.5259 4.30655 19 5.50002 19H18.5C19.028 18.9996 19.5489 18.8797 20.024 18.6494C20.4991 18.4191 20.9159 18.0844 21.2432 17.6702C21.5706 17.256 21.8 16.7731 21.9143 16.2577C22.0285 15.7423 22.0248 15.2077 21.9032 14.694C21.7816 14.1802 21.5454 13.7006 21.2122 13.2911C20.879 12.8816 20.4575 12.5528 19.9793 12.3292C19.501 12.1057 18.9784 11.9932 18.4505 12.0003C17.9226 12.0074 17.4031 12.1337 16.931 12.37L17 11.5C17.0016 10.1666 16.5187 8.87805 15.6413 7.87407C14.7638 6.8701 13.5515 6.21908 12.2299 6.04214C10.9083 5.86521 9.5674 6.1744 8.45674 6.9122C7.34607 7.64999 6.54125 8.76615 6.19202 10.053L5.50002 9.99999ZM12 17V11.75L14.25 14L15 13.336L11.5 9.83599L8.00002 13.336L8.75002 14L11 11.75V17H12Z" fill="#333333"/>
</g>
<defs>
<clipPath id="clip0_8138_4117">
<rect width="24" height="24" fill="white"/>
</clipPath>
</defs>
</svg>
